<svg xmlns="http://www.w3.org/2000/svg" data-name="Layer 1" viewBox="0 0 1079.1 1079.1"><path d="M0 0h1079.1v1079.1H0z" style="fill:none"/><path d="M441.76 394.4h-11.4v2.61h4.07v11.24h3.09v-11.24h4.23v-2.61Zm14.49 0h-4.07l-2.28 10.75-2.77-10.75h-4.07v13.84h2.61V397l2.77 11.24h2.61l2.77-11.24v11.24h2.44V394.4Zm-90.76 255.45L230.54 684.7H121.02V394.88H233.8l60.48-.49 121.77.01v290.29H294.28l72.04-34.94c17.82-2.27 31.61-17.5 31.61-35.93 0-19.99-16.23-36.22-36.22-36.22s-36.22 16.23-36.22 36.22 16.23 36.22 36.22 36.22c1.27 0 2.53-.07 3.77-.19Zm193.86-201.83 15.4 13.69c-.23.38-.61.91-1.14 1.6s-1.77 1.88-3.71 3.59a36.902 36.902 0 0 1-6.39 4.51c-2.32 1.29-5.4 2.47-9.24 3.54s-7.89 1.6-12.15 1.6c-12.02 0-22-3.9-29.95-11.69s-11.92-17.47-11.92-29.03 4.09-21.35 12.26-29.38 18.27-12.04 30.29-12.04c4.11 0 7.99.46 11.64 1.37s6.64 2.02 8.96 3.31c2.32 1.29 4.34 2.61 6.05 3.94s2.91 2.45 3.59 3.37l1.14 1.37-16.09 13.92c-.15-.23-.34-.49-.57-.8-.23-.3-.8-.87-1.71-1.71-.91-.84-1.92-1.58-3.02-2.22-1.1-.65-2.59-1.24-4.45-1.77s-3.82-.8-5.88-.8c-5.93 0-10.84 2.02-14.72 6.05-3.88 4.03-5.82 9.05-5.82 15.06s1.94 11.03 5.82 15.06c3.88 4.03 8.78 6.05 14.72 6.05 2.21 0 4.3-.29 6.27-.86 1.98-.57 3.57-1.27 4.79-2.11 1.22-.84 2.28-1.69 3.19-2.57.91-.87 1.56-1.58 1.94-2.11l.68-.91Zm87.28 27.38h-61.6v-79.86h60.46v18.82H606.7v11.41h33.08v17.68H606.7v13.12h39.93v18.82Zm65.6 0-31.94-47.34v47.34h-21.11v-79.86h22.25l30.8 45.75v-45.75h21.11v79.86h-21.11Zm95.26-61.04h-21.68v61.03h-21.68v-61.03h-21.68v-18.82h65.03v18.82Zm9.12 61.04v-79.86h36.85c8.9 0 16.1 2.45 21.62 7.36 5.51 4.91 8.27 11.39 8.27 19.45 0 5.55-1.35 10.42-4.05 14.6-2.7 4.18-6.45 7.42-11.24 9.7l18.71 28.75h-25.1l-15.63-25.67h-7.76v25.67H816.6Zm34.23-61.61h-12.55v19.39h12.55c3.42 0 6.08-.87 7.99-2.62 1.9-1.75 2.85-4.11 2.85-7.07s-.95-5.32-2.85-7.07c-1.9-1.75-4.56-2.62-7.99-2.62Zm107.24 61.61h-61.6v-79.86h60.46v18.82h-38.79v11.41h33.08v17.68h-33.08v13.12h39.93v18.82ZM556.73 585.13l-31.94-47.34v47.34h-21.11v-79.86h22.25l30.8 45.75v-45.75h21.11v79.86h-21.11Zm74.73-45.06h40.04c.3 2.05.46 4.03.46 5.93 0 11.48-3.65 21.07-10.95 28.75-7.3 7.68-16.88 11.52-28.75 11.52s-22-3.9-29.95-11.69c-7.95-7.8-11.92-17.47-11.92-29.03s4.09-21.35 12.26-29.38c8.18-8.02 18.27-12.04 30.29-12.04 4.11 0 7.99.44 11.64 1.31 3.65.87 6.64 1.94 8.96 3.19 2.32 1.26 4.34 2.51 6.05 3.77 1.71 1.25 2.91 2.3 3.59 3.14l1.14 1.37-15.17 15.29c-.15-.23-.36-.51-.63-.86-.27-.34-.91-.99-1.94-1.94-1.03-.95-2.13-1.79-3.31-2.51-1.18-.72-2.72-1.37-4.62-1.94-1.9-.57-3.92-.86-6.05-.86-6.01 0-10.93 2.02-14.77 6.05-3.84 4.03-5.76 9.13-5.76 15.29s1.94 11.27 5.82 15.34c3.88 4.07 8.78 6.1 14.72 6.1 9.28 0 14.95-3.8 17-11.41h-18.14v-15.4Zm134.04 4.8c0 11.55-4.08 21.35-12.26 29.37-8.17 8.02-18.27 12.04-30.29 12.04s-22.02-3.88-30-11.64c-7.91-7.83-11.87-17.53-11.87-29.09s4.09-21.35 12.27-29.38c8.17-8.02 18.27-12.03 30.29-12.03s22 3.9 29.94 11.69c7.95 7.8 11.92 17.47 11.92 29.04Z" style="fill:#16006d"/></svg>