<svg xmlns="http://www.w3.org/2000/svg" width="250.23" height="73.81" data-name="Layer 2"><g data-name="Layer 1"><path fill="#3e4196" fill-rule="evenodd" d="M250.23 42.54c0 17.2-13.45 31.27-32.33 31.27H32.33C13.46 73.81 0 59.75 0 42.54s13.46-31.2 32.33-31.2H217.9c18.88 0 32.33 14.06 32.33 31.21"/><path fill="#fff" fill-rule="evenodd" d="M49.74 42.8c-2.33-2.15-5.2-4-8.49-4-4.31 0-7.82 3.42-7.82 7.74s3.73 7.74 8.05 7.74c3.32 0 5.93-1.41 8.26-3.69l-.43 14.85c-2.3 1.09-7.69 1.57-10.27 1.57-11.31 0-20.13-8.8-20.13-20.1S28 26.08 39.62 26.08c3.28 0 6.65.61 9.7 1.64l.43 15.07Zm20.56-3.88c-1.44-.75-3.08-1.12-4.89-1.12-7.88 0-12.17 7.71-12.17 14.76s4.24 14.46 11.8 14.46c2.15 0 3.8-.54 5.26-1.46 1.15-.72 2.19-1.7 3.28-2.85h.31l-.43 3.68h13.31V38.43H73.46l.43 3.34h-.31c-.95-1.26-2.05-2.22-3.28-2.85M66.74 52.3c0-2.07 1.35-3.85 3.51-3.85h.05c2.14.02 3.6 1.61 3.6 3.74s-1.03 4.17-3.6 4.2h-.05c-2.48 0-3.51-1.9-3.51-4.08m26.66 3.18.86.52c1.87 1.18 4.63 2.58 6.93 2.58.89 0 2.02-.46 2.02-1.52 0-1.53-1.65-1.58-2.74-1.73-4.54-.63-8.75-2.47-8.75-7.74 0-7.02 7.05-9.81 13.06-9.81 3.45 0 7.77.69 10.8 2.39l-3.29 7.74c-1.73-1.27-4.06-2.33-6.27-2.33-.83 0-1.93.26-1.93 1.26 0 1.38 1.47 1.47 3.37 1.79 4.83.8 8.74 2.47 8.74 8.11 0 7.28-7.15 10.27-13.48 10.27-4.4 0-8.74-1.37-12.77-3.1l3.45-8.43Zm42.84-16.57c-1.45-.75-3.11-1.12-4.89-1.12-7.91 0-12.17 7.71-12.17 14.76s4.21 14.46 11.79 14.46c2.16 0 3.8-.54 5.27-1.46 1.11-.72 2.15-1.7 3.25-2.85h.31l-.43 3.68h13.32V38.43h-13.32l.43 3.34h-.31c-.92-1.26-2.01-2.22-3.25-2.85m-3.6 13.38c0-2.07 1.38-3.85 3.54-3.85h.06c2.13.02 3.56 1.61 3.56 3.74s-1.03 4.17-3.56 4.2h-.06c-2.48 0-3.54-1.9-3.54-4.08m38.12-8.93h.43c1.09-3.42 4.52-5.58 8.07-5.58 4 0 6.79 2.16 8 5.95h.32c1.58-3.88 4.17-5.95 8.48-5.95 6.68 0 9.64 5.18 9.64 11.22V66.4h-13.17V52.56c0-1.64 0-3.74-1.98-3.74s-1.96 2.1-1.96 3.74V66.4h-13.14V52.56c0-1.64 0-3.74-2.01-3.74s-1.93 2.1-1.93 3.74V66.4h-13.17V38.44h12.86l-.43 4.95Z"/><path fill="#fff" d="M212.12 38.43h13.58v27.96h-13.58z"/><path fill="#fbee2d" fill-rule="evenodd" d="M198.77 15.22c0 9.46-5.38 15.22-16.8 15.22H66.19c-11.42 0-16.79-5.75-16.79-15.22S54.77 0 66.19 0h115.78c11.42 0 16.8 5.75 16.8 15.22"/><path fill="#373536" fill-rule="evenodd" d="M54.6 8.49c.09-.29.17-.52.26-.78.09-.37.12-.44.21-1.12.05-.49.22-.75.69-1.04.46-.32.94-.52 1.18-.52.32 0 .55.32.55.78 0 .31-.04.35-.38 1.18-1.26 2.96-3.34 10.76-3.34 12.57 0 .76.32 1.12 1.01 1.12.83 0 1.95-.4 3.54-1.24.2-.11.38-.17.46-.17.15 0 .23.14.23.43 0 .46-.35 1.12-1.04 1.78a5.49 5.49 0 0 1-3.85 1.55c-.75 0-1.29-.2-1.67-.63-.43-.46-.72-1.33-.72-2.04 0-.86.2-2.01.81-4.52.41-1.73 1.15-4.46 1.58-5.78l.49-1.58Z"/><path fill="#373536" fill-rule="evenodd" d="M62.5 12.83c-.26.18-.48.34-.78.58-.16.12-.25.17-.34.17-.14 0-.26-.11-.26-.37 0-.34.23-.84.6-1.27.24-.26.49-.49.78-.69.7-.49 1.5-.72 2.4-.72.72 0 1.2.17 1.61.58.35.4.6 1.15.6 1.9s-.26 2.1-.72 3.68l-1.13 4c-.11.51-.16.72-.16 1.35 0 .38-.84 1.41-1.16 1.41-.22 0-.42-.52-.42-1.09 0-.15 0-.29.03-.58-.38.4-.69.75-1.04 1.01-.6.45-1.18.66-1.84.66-1.1 0-1.79-.86-1.79-2.27 0-2.5 1.62-4.8 3.62-5.61.5-.2.98-.32 1.5-.32h.17c.28.03.45.03.54.03.44 0 .82-.69.82-1.53 0-.95-.49-1.5-1.27-1.5-.58 0-1.13.17-1.76.58m0 8.54c-.34.2-.69.32-1 .32-.61 0-1.01-.55-1.01-1.41 0-1.38.92-2.76 2.01-3.31.29-.14.61-.2.9-.2.69 0 1.09.49 1.09 1.32 0 1.24-.95 2.67-1.99 3.28m22.25-3.1c-.38 1.38-.46 1.84-.58 3.04-.05.46-.12.58-.52 1.07-.4.49-.83.8-1.01.8-.2 0-.37-.37-.37-.86 0-.66.23-1.78.71-3.65l.52-1.81c.55-2.1.66-2.65.66-3.37s-.29-1.18-.78-1.18c-1.61 0-3.83 4.4-4.55 8.86-.08.61-.23.89-.58 1.3-.37.43-.77.69-.95.69-.23 0-.37-.31-.37-.83 0-.55.14-1.15.66-3.13l.52-2.02c.55-2.12.72-2.99.72-3.68s-.26-1.15-.72-1.15c-.89 0-2.18 1.58-3.1 3.77-.67 1.5-1.16 3.23-1.44 4.86-.14.84-.18.95-.5 1.32-.4.49-.86.86-1.09.86s-.35-.29-.35-.77c0-.84.52-2.96 1.75-7.22l.61-2.14.14-.49.09-.46c.09-.66.15-.8.66-1.15.34-.28.69-.4.92-.4.19 0 .35.2.35.54 0 .23-.06.49-.21.92l-.29.95v.12c0 .06.03.11.05.11s.06-.02.12-.08c.97-1.44 2.45-2.58 3.31-2.58.78 0 1.41 1.04 1.41 2.33v.55c0 .11.03.17.09.17.03 0 .09-.03.35-.4 1.33-1.73 2.53-2.62 3.52-2.62.86 0 1.37.89 1.37 2.41 0 .95-.05 1.15-.69 3.51l-.45 1.82Zm4.36-5.44c-.25.18-.51.34-.77.58-.2.12-.26.17-.37.17-.15 0-.24-.11-.24-.37 0-.34.24-.84.58-1.27.23-.26.52-.49.8-.69.67-.49 1.5-.72 2.39-.72.73 0 1.21.17 1.59.58.34.4.6 1.15.6 1.9s-.26 2.1-.69 3.68l-1.12 4c-.15.51-.18.72-.18 1.35 0 .38-.86 1.41-1.14 1.41-.26 0-.46-.52-.46-1.09 0-.15.03-.29.05-.58-.37.4-.72.75-1.04 1.01-.6.45-1.2.66-1.87.66-1.08 0-1.75-.86-1.75-2.27 0-2.5 1.58-4.83 3.62-5.61.46-.2.98-.32 1.5-.32h.17c.26.03.46.03.55.03.43 0 .77-.69.77-1.53 0-.95-.46-1.5-1.26-1.5-.54 0-1.12.17-1.73.58m0 8.54c-.34.2-.68.32-1.01.32-.59 0-1-.55-1-1.41 0-1.38.92-2.76 2.01-3.31.3-.14.58-.2.89-.2.66 0 1.1.49 1.1 1.32 0 1.24-.95 2.67-1.99 3.28m8.76-9.21c.17-.6.25-.92.25-1.15 0-.37-.12-.58-.32-.58-.14 0-.45.14-.97.43-.32.17-.4.34-.61 1.06-.18.66-.2.72-.38 1.32l-1 3.51c-.81 2.76-1.27 4.8-1.27 5.69 0 .43.15.72.34.72.18 0 .58-.34 1.09-.95.29-.32.38-.49.44-.87.11-1.09.77-3.74 1.78-7.08l.64-2.13Zm1.14-8.05c-.31 0-.98.52-1.23.95-.36.55-.78 1.98-.78 2.59 0 .26.09.46.25.46.26 0 1.01-.58 1.32-.98.35-.48.73-1.63.78-2.47 0-.29-.14-.55-.34-.55m3.22 11.8c1.18.58 1.67 1.26 1.67 2.22 0 1.12-.61 2.41-1.7 3.65-1.01 1.07-1.95 1.61-2.99 1.61-.51 0-1.04-.14-1.35-.37-.37-.29-.72-.95-.72-1.47 0-.72.72-1.93 1.12-1.93.11 0 .17.09.17.26v.21c0 .75.62 1.32 1.49 1.32 1.21 0 2.24-1.01 2.24-2.16 0-.46-.25-.83-.8-1.1l-.69-.34c-1.36-.63-1.9-1.32-1.9-2.3 0-2.25 2.82-5.29 4.88-5.29.83 0 1.44.66 1.44 1.55 0 .74-.78 1.84-1.32 1.84-.12 0-.18-.08-.18-.4-.06-.72-.4-1.1-1.01-1.1-1.09 0-2.24 1.1-2.24 2.13 0 .49.23.84.77 1.09l1.09.58Zm6.22-4.7c.64-.48 1.27-.77 1.84-.77 1.3 0 2.02 1.21 2.02 3.37 0 3.17-1.84 7.02-3.86 8.72-.66.55-1.36.89-1.98.89-1.11 0-1.88-1.27-1.88-3.08s.66-4.37 1.67-6.33c.64-1.21 1.41-2.18 2.19-2.79m1.06.98c-.35 0-.72.17-1.07.52-1.2 1.14-2.26 3.94-2.26 6.44 0 1.21.46 2.01 1.09 2.01.37 0 .78-.2 1.18-.58.44-.4.86-1.01 1.21-1.69.6-1.33 1.06-3.17 1.06-4.43 0-1.38-.46-2.27-1.21-2.27m10.24 6.3c-.29 1.15-.46 2.07-.55 2.73-.05.55-.13.75-.46 1.09-.49.57-.86.89-1.07.89s-.35-.28-.35-.8c0-.55.29-2.16.58-3.22l.55-2.04c.71-2.5.8-2.96.8-3.6 0-.72-.32-1.21-.77-1.21-1.04 0-2.45 1.87-3.43 4.49-.48 1.27-.95 3.02-1.12 4.14-.15.86-.15.89-.51 1.27-.58.63-.92.92-1.07.92-.21 0-.35-.29-.35-.72 0-.87.58-3.36 1.76-7.28l.57-2.14.15-.45c.02-.15.06-.32.11-.46.18-.83.23-.98.7-1.2.57-.32.71-.4.88-.4.24 0 .38.2.38.55 0 .23-.11.66-.26 1.09l-.26.8c0 .06-.03.08-.03.14 0 .03.03.08.06.08q.06 0 .23-.2c1.06-1.43 2.42-2.44 3.26-2.44s1.4.89 1.4 2.38c0 .75-.2 1.84-.55 3.11l-.66 2.48Zm9.9-7.16c.63-.55 1.29-.83 1.9-.83s1 .26 1.29.89c.02.09.05.15.11.15.05 0 .11-.12.17-.29l1.27-5.01c.54-.49 1.08-.78 1.45-.78.21 0 .36.2.36.48 0 .14-.06.38-.2.72-.26.63-.84 2.59-1.38 4.64l-1.21 4.66c-.66 2.36-1 4.11-1 4.74V21c.03.14.03.23.03.26 0 .38-.19.69-.77 1.3-.35.34-.58.52-.7.52-.26 0-.57-.61-.57-1.09v-.35c0-.08-.03-.17-.08-.17 0 0-.03 0-.15.17-.17.23-.34.43-.51.64-.66.66-1.41 1.03-2.11 1.03-1.09 0-1.78-1.18-1.78-3.11 0-3.31 1.86-7.19 3.88-8.86m1.17.94c-.39 0-.8.2-1.17.52-.53.46-1.01 1.24-1.41 2.28-.61 1.38-.98 2.96-.98 4.11s.43 1.78 1.07 1.78c.43 0 .89-.2 1.33-.57.51-.46.97-1.15 1.38-2.07.58-1.32.98-3.05.98-4.08 0-1.3-.37-1.96-1.19-1.96m10.38 5.52c-.42 1.44-.57 2.24-.57 2.99 0 .17 0 .49.03.63s.03.26.03.32c0 .43-.92 1.44-1.32 1.44-.29 0-.51-.66-.51-1.44q0-.11.03-.37v-.06c0-.11-.06-.2-.09-.2s-.08.06-.14.14c-.66 1.01-1.81 1.87-2.5 1.87-1 0-1.61-1.01-1.61-2.67 0-.61.11-1.33.25-1.99.18-.78.52-2.18.61-2.47l.72-2.42c.23-.66.31-1.03.38-1.58.03-.43.11-.57.49-.8.37-.23.74-.41.98-.41s.37.23.37.64c0 .26-.03.43-.19 1.03l-.45 1.47c-1.23 4.2-1.4 5.01-1.4 5.72 0 .67.29 1.18.69 1.18.71 0 1.49-.83 2.12-2.27.58-1.24 1.58-4.58 2.05-6.65.05-.35.12-.43.54-.72.44-.29.74-.43.99-.43.2 0 .32.2.32.52 0 .23-.06.34-.25 1.03l-1.54 5.49Zm7.77 1.41c0 1.29.46 2.07 1.24 2.07s1.72-.74 2.76-2.18c.26-.38.32-.43.44-.43.11 0 .2.18.2.32 0 .34-.32 1.2-.69 1.86-.92 1.58-2.24 2.62-3.36 2.62-1.26 0-2.15-1.44-2.15-3.57 0-4.46 2.9-9.46 5.52-9.46.89 0 1.47.78 1.47 2.04 0 .69-.22 1.35-.58 1.84-.29.38-.58.61-.75.61-.14 0-.23-.17-.23-.35 0-.08 0-.23.03-.32 0-.23.03-.43.03-.63 0-.98-.29-1.5-.78-1.5-1.43 0-3.13 3.85-3.13 7.08m8.95-8.01c.64-.48 1.27-.77 1.84-.77 1.29 0 2.04 1.21 2.04 3.37 0 3.17-1.87 7.02-3.88 8.72-.66.55-1.32.89-1.98.89-1.1 0-1.87-1.27-1.87-3.08s.66-4.37 1.68-6.33c.63-1.21 1.4-2.18 2.18-2.79m1.06.98c-.35 0-.69.17-1.07.52-1.18 1.14-2.27 3.94-2.27 6.44 0 1.21.46 2.01 1.12 2.01.34 0 .75-.2 1.15-.58.43-.4.86-1.01 1.2-1.69.62-1.33 1.07-3.17 1.07-4.43 0-1.38-.45-2.27-1.21-2.27m10.27 6.3c-.29 1.15-.46 2.07-.54 2.73-.05.55-.15.75-.46 1.09-.49.57-.86.89-1.04.89-.24 0-.38-.28-.38-.8 0-.55.29-2.16.58-3.22l.57-2.04c.69-2.5.78-2.96.78-3.6 0-.72-.31-1.21-.78-1.21-1.03 0-2.44 1.87-3.42 4.49-.49 1.27-.95 3.02-1.13 4.14-.13.86-.17.89-.54 1.27-.57.63-.92.92-1.06.92-.2 0-.35-.29-.35-.72 0-.87.61-3.36 1.76-7.28l.6-2.14.15-.45c.05-.15.08-.32.11-.46.18-.83.26-.98.68-1.2.59-.32.73-.4.9-.4.24 0 .37.2.37.55 0 .23-.11.66-.25 1.09l-.23.8c-.03.06-.06.08-.06.14 0 .03.06.08.09.08l.2-.2c1.08-1.43 2.42-2.44 3.29-2.44s1.38.89 1.38 2.38c0 .75-.17 1.84-.55 3.11l-.67 2.48Zm4.01-.29c-.17.66-.5 2.19-.58 2.88-.08.69-.2.86-.57 1.3-.46.51-.84.8-.97.8-.18 0-.32-.32-.32-.78 0-.6.23-1.82.57-3.22l1.01-3.92c.03-.2.08-.4.15-.58l.14-.49c.06-.29.11-.55.11-.67 0-.11-.2-.25-.32-.17h-.83c-.21 0-.23-.06-.23-.2s.28-.8.66-1.38c.23-.37.43-.54.71-.58l.52-.02c.2 0 .23-.03.32-.29.2-.84.81-2.45 1.27-3.28.86-1.61 2.01-2.56 3.14-2.56.77 0 1.63.87 1.63 1.61 0 .38-.19.63-.69 1.01-.29.2-.58.32-.75.32s-.22-.05-.26-.29c-.06-.51-.26-.77-.58-.77-.67 0-1.19.74-1.72 2.42-.26.83-.5 1.52-.5 1.64 0 .03.03.06.09.08h.09l.75-.02h.13l.36.02c.39 0 .54.12.54.38 0 .29-.2.69-.64 1.21-.29.35-.34.37-.8.43l-.6.06c-.46.08-.55.23-.89 1.52l-.95 3.54Zm5.66-7c.63-.48 1.26-.77 1.84-.77 1.29 0 2.04 1.21 2.04 3.37 0 3.17-1.87 7.02-3.88 8.72-.67.55-1.32.89-1.96.89-1.12 0-1.9-1.27-1.9-3.08s.66-4.37 1.66-6.33c.64-1.21 1.41-2.18 2.19-2.79m1.11.98c-.38 0-.72.17-1.09.52-1.18 1.14-2.25 3.94-2.25 6.44 0 1.21.43 2.01 1.09 2.01.35 0 .78-.2 1.16-.58.43-.4.86-1.01 1.2-1.69.64-1.33 1.07-3.17 1.07-4.43 0-1.38-.45-2.27-1.18-2.27m5 .26q.34-1.24.6-1.44c.53-.46.9-.72 1.13-.72.17 0 .29.18.29.46 0 .26-.03.43-.23 1.03-.08.17-.08.26-.08.31 0 .09.03.15.08.15q.05 0 .34-.37c.84-.98 1.61-1.52 2.18-1.52.52 0 .98.4.98.86 0 .58-.89 1.79-1.32 1.79-.03 0-.08-.03-.18-.14-.29-.29-.4-.38-.68-.38-.52 0-1.21.61-1.64 1.47-.71 1.47-1.75 5.04-2.12 7.5-.06.43-.17.64-.66 1.15-.43.43-.61.55-.8.55-.23 0-.37-.29-.37-.75 0-.58.32-1.98.81-3.83l1.7-6.13Z"/><path fill="#373536" fill-rule="evenodd" d="M193.72 12.57c-.5.02-.52.05-1.33 2.51-.78 2.47-1.16 4.03-1.16 4.83s.35 1.27.84 1.27c.44 0 .89-.23 1.53-.83.02 0 .2-.2.55-.58.05-.05.09-.05.14-.05.03 0 .09.05.09.17 0 .26-.31.86-.7 1.41-.86 1.15-1.79 1.79-2.59 1.79-.89 0-1.55-.98-1.55-2.39 0-.95.18-1.84.72-3.74l1.12-3.68c.03-.11.06-.2.06-.25 0-.18-.09-.26-.2-.26h-.03l-1.09.14h-.17c-.14 0-.2-.11-.2-.26s.06-.31.18-.49c.09-.11.17-.26.22-.34.06-.14.04-.08.12-.2.35-.6.45-.66.83-.66h.64c.31 0 .38-.05.51-.6l.81-2.56q.26-.78.49-.89c.35-.26.77-.43.98-.43.24 0 .37.26.37.63 0 .2 0 .26-.14.66l-.72 2.36c-.06.11-.09.34-.09.43 0 .17.03.17.29.2h.08l1.07-.08h.15c.28 0 .37.08.37.28s-.35.75-.72 1.18c-.29.32-.48.4-.89.43l-.57.03Z"/><path fill="#ee3438" fill-rule="evenodd" d="M235.91 20.08c0 9.44-7.62 17.03-17.03 17.03s-17.06-7.59-17.06-17.03 7.62-17.06 17.06-17.06 17.03 7.65 17.03 17.06"/><path fill="#fff" fill-rule="evenodd" d="M220.26 12.43c0 3.05 2.48 5.52 5.52 5.52s5.52-2.47 5.52-5.52-2.47-5.52-5.52-5.52-5.52 2.47-5.52 5.52"/></g></svg>