<svg xmlns="http://www.w3.org/2000/svg" width="228.01" height="71.09" data-name="Layer 2"><g fill="#f15f22" data-name="Layer 1"><path d="M152.84 21.81c-5.32 0-9.63 4.31-9.63 9.63s4.31 9.63 9.63 9.63 9.63-4.31 9.63-9.63-4.31-9.63-9.63-9.63m5.06 13.95c-.02.12-.1.23-.2.3l-1.61 1.09-.69.47a.476.476 0 0 1-.74-.47l.9-5.13-6.74 4.39c-.11.07-.25.1-.38.06l-.83-.21-1.15-.3a.477.477 0 0 1-.35-.54l.37-2.14c.02-.13.1-.25.21-.32l5.68-3.72c.35-.23.26-.77-.15-.86l-3.93-.95a.48.48 0 0 1-.16-.86l2.33-1.61c.11-.08.25-.1.38-.07l4.84 1.16 3.57.86c.25.06.41.31.36.56l-1.7 8.31Zm-42.72.31c-2.75-5.21-8.9-7.59-14.49-9.75-4.16-1.61-8.41-2.96-12.52-4.72-1.58-.66-3.78-1.68-3.44-3.77.23-1.45 1.72-2.26 2.99-2.66 2.84-.9 6-.6 8.91-.26 2.7.32 5.37.93 7.96 1.76 3.45 1.11 6.77 2.59 9.97 4.28l.86.46V6.86c-2.42-1.2-5.04-1.99-8.21-2.79-5.94-1.51-11.81-2.28-17.45-2.28-4.06 0-7.99.4-11.69 1.2-1.99.43-3.86 1.01-5.58 1.73-4.29 1.79-7.4 4.33-9.25 7.53-2.01 3.49-2.42 7.53-1.04 11.25.05.1.1.19.14.3 2.4 5.8 8.76 9 14.04 11.14 2.12.86 4.34 1.58 6.49 2.27 2.91.94 5.93 1.92 8.78 3.26.63.3 2.56 1.21 2.62 3.16.06 1.92-1.92 3-3.55 3.36-1.55.34-3.28.47-4.86.47-4.15 0-8.1-.58-11.76-1.72a95.96 95.96 0 0 1-11.25-4.35l-1.37-.59-.04 15.1s6.95 2.17 9.92 2.82c6.29 1.39 12.28 2.1 17.79 2.1 7.9 0 16.99-.97 22.55-7.24 1.09-1.23 2.03-2.62 2.81-4.12 1.03-2.01 1.67-4.03 1.91-6 .32-2.64-.11-5.19-1.25-7.37M2.05 60.34h15.13V32.56l12.95 10.43 12.96-10.42v27.78h15.14V4.62l-28.1 22.26L2.05 4.62v55.72z"/><path d="M228.01 57.72c-.04-2.29-.87-4.14-2.47-5.49-1.53-1.29-3.6-1.95-6.16-1.95-1.98 0-3.84.43-5.52 1.29a11.69 11.69 0 0 0-4.2 3.61c-.07.09-.13.19-.2.28l.55-3.12a1.598 1.598 0 0 0-1.58-1.88h-4.81a1.6 1.6 0 0 0-1.58 1.33l-.85 4.86-2.53-5.28c-.27-.56-.83-.91-1.45-.91h-4.81c-.58 0-1.09.31-1.38.78-.04-.07-.09-.14-.14-.21-.31-.36-.76-.57-1.23-.57h-4.81c-.78 0-1.44.56-1.58 1.33l-.76 4.27c-.18-.55-.41-1.07-.7-1.56-.77-1.3-1.89-2.32-3.33-3.02a9.18 9.18 0 0 0-1.49-.57V36.83l-3.62 2.2c-.56.35-1.14.69-1.71 1-8.02 4.38-19.33 7.48-27.4 1.54-1.31-.96-2.46-2.11-3.36-3.47-1.31-1.99-1.96-4.13-1.96-6.52 0-2.62.68-4.95 2.23-7.04 1.6-2.16 3.68-3.72 6.15-4.82 2.71-1.19 5.57-1.75 8.55-1.75s6.21.39 9.03 1.55c2.84 1.16 5.6 2.58 8.23 4.17 0 0 3.6 2.16 3.61 2.15V4.96l-1.61-.55c-7.39-2.51-15.41-4.4-23.29-4.4-4.5 0-8.97.57-13.3 1.82-4.16 1.2-8.05 3.09-11.48 5.75-3.46 2.66-6.12 6.01-8 9.95-.81 1.68-1.42 3.44-1.86 5.23v-17l-1.32-.65c-1.59-.78-3.51-1.39-5.16-1.92-2.99-.97-6.16-1.61-9.24-2.13C97.46.38 93.37.11 89.3.11c-5.28 0-10.88.55-15.93 2.33-3.81 1.34-7.61 3.37-10.26 6.59-1.29 1.57-2.25 3.29-2.85 5.14V.26L30.12 24.21 0 .26V62.4h19.24V36.85l10.9 8.78 10.91-8.77v25.55h19.23v-4.96l1.6.51c3.96 1.28 8.02 2.35 12.14 3.09 3.05.54 6.24 1.06 9.36 1.26 1.97.12 3.96.23 5.94.23 3.99 0 8.03-.33 11.96-1.18 5.25-1.13 9.71-3.62 12.98-8.09.07-.1.14-.2.22-.31l-.47 2.64c-.08.47.04.95.35 1.31.31.36.76.57 1.23.57h2.65l-2.05 11.59c-.08.47.05.95.35 1.31.31.36.76.57 1.23.57h4.84a1.6 1.6 0 0 0 1.58-1.33l2.15-12.15h3.13l-2.05 11.59c-.08.47.04.95.35 1.31.3.36.76.57 1.23.57h4.84c.78 0 1.44-.56 1.58-1.33l.25-1.42.61 1.69c.23.64.83 1.06 1.51 1.06h5.35c.16 0 .32-.03.47-.07.15.05.3.07.46.07h5.06c.61 0 1.16-.34 1.43-.88l.98-1.94h3.77l.23 1.47c.12.78.79 1.36 1.59 1.36h5.08c.27 0 .54-.07.77-.2.23.13.5.2.77.2h6.85c2.06 0 3.97-.43 5.68-1.29a11.76 11.76 0 0 0 4.28-3.56l.23-.32-.58 3.28c-.08.47.05.95.35 1.31s.76.57 1.23.57h4.84c.57 0 1.08-.3 1.36-.76.04.06.08.13.13.19.3.36.75.57 1.23.57h4.84c.78 0 1.44-.56 1.58-1.32l.85-4.78 2.51 5.2c.27.56.83.91 1.45.91h4.84a1.6 1.6 0 0 0 1.58-1.33l.74-4.24c.17.54.4 1.06.67 1.55.74 1.32 1.82 2.35 3.21 3.08 1.34.7 2.93 1.05 4.72 1.05 2.39 0 4.54-.62 6.38-1.84 1.79-1.18 3.19-2.62 4.16-4.29.1-.16.16-.34.19-.53l.83-4.66c.07-.37 0-.75-.19-1.08.21-.28.32-.62.31-.98M116.36 34.5c-.28-.46-.59-.9-.92-1.33-1.84-2.39-4.45-4.31-7.55-5.75-4.6-2.14-9.49-3.91-14.26-5.57-1.35-.48-2.71-.98-4.02-1.55-.55-.23-1.09-.47-1.61-.75-.35-.19-.7-.37-1.02-.62-.25-.19-.54-.44-.51-.78.03-.35.33-.6.61-.77.77-.49 1.62-.71 2.52-.82.93-.11 1.88-.15 2.59-.15 3.92 0 7.79.57 11.5 1.82 3.45 1.17 6.83 2.57 10.05 4.27l3.16 1.68c-.46 2.34-.67 4.73-.67 7.12 0 1.07.05 2.13.14 3.19m-56.09-11.1c.59 1.83 1.54 3.53 2.87 5.06 2.34 2.71 5.27 4.76 8.46 6.31 4.65 2.25 9.64 3.91 14.58 5.42 1.69.52 3.38 1.21 4.96 2.02.37.19.74.42 1.02.74.2.23.34.52.33.82-.01.4-.29.76-.63.97-.56.35-1.24.48-1.88.58-.75.12-1.51.19-2.26.25-1.54.11-3.1.12-4.64.02-1.21-.08-2.42-.22-3.62-.42-4.98-.81-9.71-2.7-14.32-4.7-1.63-.71-3.24-1.47-4.85-2.21V23.39Zm-.8 38.21H41.85V35.18l-11.71 9.41-11.71-9.41v26.41H.8V2.03l29.33 23.25L59.48 2.03v59.56Zm55.92-11.71c-.8 1.55-1.79 3.02-2.95 4.33-1.13 1.27-2.42 2.4-3.85 3.33-1.35.88-2.8 1.59-4.32 2.13-1.04.37-2.1.67-3.17.9-9.78 2.11-20.26 1.24-29.95-.91-3.7-.82-7.31-1.89-10.9-3.09l-.02-17.29c3.02 1.19 5.97 2.53 9 3.7 3.8 1.46 7.68 2.71 11.73 3.19 3.05.36 6.15.42 9.19-.11 1.33-.23 3.13-.75 3.13-2.41-.03-1.16-1.12-1.85-2.05-2.3-4.9-2.31-10.22-3.49-15.23-5.52-5.7-2.31-12.1-5.68-14.58-11.68-.07-.17-.17-.32-.23-.49-1.45-3.95-.91-8.31 1.18-11.93 2.18-3.77 5.76-6.29 9.72-7.95 1.85-.78 3.79-1.36 5.75-1.78C87.56-.08 97.87.66 107.44 3.1c2.87.73 5.81 1.57 8.5 2.92l.45.22v16.8l-2.31-1.23c-5.86-3.1-12.18-5.52-18.83-6.06-2.62-.21-5.56-.44-8.03.65-.42.19-.83.42-1.13.77-.3.34-.49.81-.41 1.27.14.81.93 1.32 1.6 1.67.91.48 1.89.85 2.83 1.25 2.02.87 4.09 1.6 6.17 2.32 1.59.55 3.19 1.1 4.76 1.71 5.55 2.15 12.05 4.62 15.01 10.21 1.27 2.43 1.68 5.24 1.35 7.95-.27 2.2-1 4.36-2.01 6.33m2.55-4.64c.16-.76.27-1.5.33-2.22.11.28.22.58.34.87 1 2.39 2.3 4.58 3.89 6.56h-6.23c-.09 0-.18 0-.27.02.87-1.65 1.55-3.42 1.94-5.23m7.04 10.64-2.38 13.48h-4.84l2.38-13.48h-4.57l.69-3.83h13.99l-.69 3.83h-4.59Zm18.63 4.83c-.8.89-1.87 1.53-3.19 1.9l2.7 6.75h-5.35l-2.31-6.38h-.52l-1.13 6.38h-4.84l3.07-17.31h7.59c1.82 0 3.2.4 4.15 1.21.95.81 1.42 1.89 1.42 3.23 0 .41-.03.78-.1 1.1-.2 1.18-.7 2.21-1.5 3.11m13.51 8.66-.44-2.82h-6.14l-1.42 2.82h-5.06l9.35-17.31h5.55l3.24 17.31h-5.08Zm5.76-23.67c-2.48.65-5.1.98-7.91.98-2.56 0-4.92-.38-7.08-1.14-.71-.25-1.4-.55-2.07-.88-2.72-1.36-4.81-3.18-6.33-5.46-1.5-2.28-2.24-4.77-2.26-7.52.01-3.12.86-5.81 2.58-8.13 1.74-2.33 4.02-4.12 6.88-5.4 2.87-1.26 5.96-1.9 9.26-1.9 3.76 0 7 .57 9.74 1.69 2.78 1.13 5.61 2.57 8.47 4.29 0 0 .85.51.85.49V6.35l-.38-.13c-8.43-2.87-15.99-4.31-22.69-4.31-4.47 0-8.74.58-12.79 1.75-4.07 1.17-7.69 2.99-10.88 5.44-3.21 2.47-5.71 5.57-7.48 9.3-1.78 3.73-2.66 8.07-2.66 12.99 0 4.3.75 8.27 2.25 11.88 1.1 2.63 2.6 5.03 4.51 7.18h-1.4a26.918 26.918 0 0 1-4.17-6.86c-.54-1.29-.97-2.62-1.3-3.97-.35-1.42-.6-2.86-.78-4.31-.16-1.32-.25-2.67-.25-4 0-5.07.93-9.59 2.76-13.44 1.83-3.85 4.45-7.11 7.79-9.68 3.88-2.99 8.43-4.93 13.16-6.1 3.64-.9 7.42-1.3 11.17-1.3 4.9 0 9.78.75 14.54 1.89 3.23.78 6.42 1.76 9.55 2.85v18.94l-2.43-1.46c-2.83-1.7-5.64-3.12-8.34-4.22-2.62-1.07-5.76-1.62-9.35-1.62-3.14 0-6.12.61-8.86 1.81-2.71 1.21-4.83 2.87-6.47 5.07-1.58 2.14-2.36 4.59-2.38 7.51.01 2.56.69 4.83 2.09 6.94 1.44 2.16 3.38 3.83 5.93 5.1 2.72 1.35 5.72 1.94 8.74 1.94 2.73 0 5.23-.31 7.63-.94 4.03-1.07 7.7-2.76 11.25-4.93l2.45-1.48V50.7c-.31-.07-.63-.12-.96-.16v-10.4l-.85.51a54.4 54.4 0 0 1-3.47 1.96c-.6.31-1.2.61-1.79.89-1.68.79-3.78 1.52-6.27 2.18m18.3 15.01c-.3 1.67-.93 3.16-1.9 4.47-.97 1.31-2.21 2.34-3.71 3.08-1.5.74-3.15 1.12-4.97 1.12h-6.85l3.07-17.31h6.85c1.59 0 2.96.28 4.12.85 1.16.56 2.05 1.36 2.65 2.39.61 1.03.91 2.23.91 3.61 0 .62-.06 1.22-.17 1.79m5.45 8.67h-4.84l3.07-17.31h4.81l-3.04 17.31Zm18.78 0h-4.84l-4.66-9.67-1.72 9.67h-4.84l3.07-17.31h4.81l4.69 9.79 1.72-9.79h4.81l-3.04 17.31Zm9.37-4.97c.62.57 1.54.85 2.75.85 1.69 0 3.03-.76 4.03-2.28h-4.84l.61-3.46h8.98l-.83 4.66c-.85 1.46-2.07 2.71-3.66 3.76-1.59 1.05-3.42 1.57-5.5 1.57-1.54 0-2.86-.29-3.98-.87-1.11-.58-1.96-1.39-2.55-2.44-.59-1.05-.88-2.26-.88-3.63 0-.66.06-1.28.17-1.87.3-1.7.92-3.22 1.89-4.55.97-1.33 2.18-2.37 3.63-3.12 1.46-.75 3.05-1.12 4.79-1.12 2.18 0 3.88.52 5.12 1.57 1.24 1.05 1.87 2.48 1.9 4.3h-5.18c-.18-.46-.49-.81-.93-1.06-.44-.25-1-.37-1.67-.37-1.19 0-2.21.39-3.06 1.18-.84.79-1.38 1.84-1.61 3.17-.08.49-.12.9-.12 1.23 0 1.1.31 1.93.93 2.49"/><path d="M139.79 56.42c-.29-.25-.71-.37-1.26-.37h-2.38l-.61 3.63h2.38c1.28 0 2.03-.6 2.26-1.82.03-.2.05-.33.05-.42 0-.44-.14-.79-.43-1.03m35.58.7c-.67-.59-1.61-.88-2.82-.88h-1.65l-1.6 8.91h1.67c1.41 0 2.58-.39 3.51-1.17.93-.78 1.53-1.87 1.79-3.28.07-.33.1-.68.1-1.06 0-1.1-.33-1.94-1.01-2.53m-22.97 5.78h3.71l-.86-5.62-2.85 5.62z"/></g></svg>