<svg xmlns="http://www.w3.org/2000/svg" width="458.53" height="379.78" data-name="Layer 2"><g fill="#ec2326" data-name="Layer 1"><path d="M246.67 174.08c-1.21-4.57-2.27-9.19-3.69-13.7-1.07-3.4-3.68-4.29-7.05-3.42-2.99.77-4.1 1.86-3.47 5.58 2.16 12.8 3.83 25.7 5.22 38.62.43 4-.62 8.16-.95 11.74-1.07-5.42-1.89-11.39-3.48-17.15-1.64-5.96-3.85-11.79-6.14-17.55-2.31-5.81-4.93-11.5-7.6-17.16-2.66-5.63-5.56-11.16-8.75-17.54-5.3 8.4-8.74 16.52-10.86 25.26-4.4 18.14-.29 35.28 6.73 51.79 5.34 12.55 7.87 25.46 7.09 38.88-.45 7.82-2.48 15.56-4.47 23.21.18-13 1.16-25.93-2.67-38.52-3.77-12.41-8.08-24.63-17.56-35.92-3.89 7.35-7.95 13.83-10.87 20.78-4.48 10.68-5.57 22.26-3.86 33.48 1.1 7.26 5.2 14.12 8.28 21.02 4.65 10.4 9.97 20.63 8.25 32.57-.86 5.99-2.27 11.91-4.07 17.79 4.14-19.94-6.82-35.27-15.22-51.35 9.44 9.89 13.96 22.11 16.59 36.58 2-8.6.03-18.57-4.26-27.93-4.57-9.97-8.73-20.13-12.91-29.83-1.94 3.49-4.78 7.76-6.78 12.4-4.87 11.23-10.74 22.3-13.54 34.08-2.26 9.49-.61 19.9-.71 29.9 0 .6-.1 1.2-.21 2.56-3.74-13.1-3.61-25.49.46-37.59 4.73-14.07 10.09-27.94 15.16-41.9.37-1.01.62-2.06 1.09-3.63H0v-16.41h172.46c2.23-6.18 4.47-12.42 6.97-19.35H41.4c1.6-53.07 19.82-97.91 59.11-133.53 39.14-35.49 85.82-49.77 137.19-49.2 1.47-1.7 2.66-3.08 3.86-4.46l2.26 1.25c-2.55 8.08-4.96 16.21-7.7 24.23-2.26 6.61-5.11 13.03-7.33 19.66-2.41 7.18-.36 13.89 3.05 20.3 2.7 5.09 5.84 10 7.98 15.32 2.85 7.05 8.21 9.31 15.08 9.6 1.15.05 2.3 0 4.69 0-3.04 1.75-5.09 2.93-7.13 4.11l.12-1.37c-2.77-.57-6.13-2.41-8.18-1.45-5.23 2.45-4.04 7.59-3.33 12.61 7.64-1.97 10.5 5.41 15.84 8.06 1.04.51.54 4.15.77 6.5q3.55.48 6.83-8.12c-.13 1.68-.26 3.36-.4 5.04 4.33.68 4.36.64 5.17-7.48h5.18c-.01-3.06.59-6.3-.23-9.13-.68-2.36-3.03-4.23-4.52-6.17 13.14-12.43 16.65-29.51 21.31-46.04.46.13.92.25 1.39.38-1.24 5.22-2.29 10.49-3.77 15.64-1.48 5.16-3.38 10.2-5.15 15.44 2.04 1.1 3.82 2.06 6.43 3.47 3.41-13.66 7.58-26.76 9.78-40.2 2.14-13.1 3.1-26.54 2.95-39.82-.09-8.37-2.62-16.87-5.06-25.01-2.05-6.84-12.23-10.92-19.99-9.11-.94.22-1.9.37-3.7.71 8.54-5.32 14.97-1.36 21.68 2.33 7.24 3.98 6.6 11.27 7.89 17.64.56 2.76 1.63 3.83 4.03 4.76 24.47 9.5 46.75 22.84 66.81 39.65 22.35 18.72 39.55 41.59 51.99 68.01 8.49 18.03 14.54 36.81 17.07 56.59 1.27 9.92 1.86 19.92 2.79 30.26h-6.76c-4.79-90.48-50.49-151.8-132.48-188.18-4.23 6.44-3.76 12.56-2.07 18.65.33 1.18 2.33 2.15 3.75 2.75 20.47 8.63 38.59 20.69 54.96 35.78 25.98 23.96 42.72 53.28 51.5 87.17 2.61 10.08 3.02 20.74 4.4 31.14.49 3.72.86 7.46 1.37 11.99h-6.38c-49.07 0-98.14.1-147.2-.15-5.27-.03-8.53 1.64-10.73 6.01-2.1 4.17-4 8.43-6.34 13.39H451.9q6.52 0 6.52 6.57v9.73H245.36c-.54-6.88 2.11-12.84 4.53-18.81 4.11-10.15 8.84-20.07 12.36-30.41 2.07-6.09 1.88-12.91 3.46-19.22 2.89-11.55 6.36-22.95 9.53-34.43.46-1.66.57-3.41 1.14-6.95-7.98 4.98-14.4 10.48-24.13 7.79v42.17c-.58.04-1.17.09-1.75.13-1.12-7.43-2.25-14.86-3.37-22.29 1.26-.03 3.19.44 3.67-.19 2.24-2.92 1.51-13.27-1.04-16.09-.86-.95-2.41-1.27-3.64-1.88-.46 1.14-1.39 2.32-1.28 3.4.45 4.74 1.19 9.46 1.83 14.18Zm-18.62-25.5c2.21 1.51 3.55 2.21 4.64 3.2 2.93 2.66 6.32 3.59 10.08 2.63 3.01-.77 5.96-1.8 8.88-2.87 3.53-1.29 4.3-4.45 1.3-6.61-2.01-1.45-5.1-2.89-7.22-2.36-3.21.8-4.93-.41-6.99-2.11-5.09-4.2-10.38-8.18-15.33-12.55-2.56-2.26-4.27-1.83-6.13.57-1.9 2.45-.58 3.76 1.24 5.68 3.48 3.68 6.39 7.9 9.54 11.9-.37.29-.75.58-1.12.86-4.96-2.46-5.44-10.55-13.89-10.72 3.12 17.64 14.08 30.88 19.45 46.49.49-.17.98-.35 1.46-.52l-5.91-33.58Zm-11.22-42.05c1.85-2.74 3.98-5.9 6.45-9.55-1.85-.47-2.37-.78-2.77-.67-12.22 3.2-22.37 9.48-28.64 20.71-1.06 1.9-.6 5.65.64 7.62 3.34 5.33 9.52 6.07 15.42 7.46-2.92-4.42-6.66-7.87-10.03-11.66-1.23-1.38-2.62-4.77-2.16-5.17 3.95-3.38 8.07-6.74 12.66-9.11 2.06-1.06 5.3.16 8.42.37Zm59.83 29.73c9.37-3.49 12.86-8.95 11.3-17.69-.22-1.23-1.66-3.34-2.16-3.23-2.43.51-5.43 1.01-6.93 2.67-2.31 2.55-4.47 5.92-4.97 9.2-.42 2.69 1.67 5.77 2.76 9.05Zm-73.47-13.07c2.94-2.74 4.71-5.25 7.13-6.43 2.53-1.23 5.68-1.18 8.58-1.7-2.08-6.46-4.48-8.65-9.07-7.67-1.94.42-3.79 1.78-5.42 3.05-2.62 2.04-5.02 4.37-7.52 6.57 2.28 2.23 4.55 4.46 6.3 6.17Zm-7.03 74.09-1.67.33c-3.17 7.3 5.21 29.53 14.6 34.77l-12.93-35.1Zm31.8-70.73c6-.14 7.48-2.2 5.6-6.41-1.95-4.35-4.13-8.62-6.55-12.71-.66-1.12-2.57-1.5-3.9-2.22-.56 1.6-1.82 3.32-1.56 4.77.83 4.66 2.02 9.28 3.53 13.76.48 1.42 2.39 2.36 2.89 2.82Zm-4.63-7.32c-10.57-3.26-15.12-2.06-16.42 3.43-1.21 5.11.58 7.96 4.67 8.57 3.95-4.04 7.54-7.71 11.74-12.01Zm1.01-28.16c-.97 8.3 7.8 26.97 15.42 32.51-4.19-11.77-6.27-23.44-15.42-32.51Z"/><path d="M22.29 221.92h-6.55c1.73-63.6 25.16-116.87 73.9-158.04C138.5 22.6 195.38 8.19 258.99 14.85c-2.82 4.05-4.82 6.81-10.23 6.56-12.88-.59-25.82-.5-38.71 0-17.92.68-35.18 5.09-52.03 11.02-22.24 7.82-42.31 19.47-60.76 34.17C78.33 81.68 63 99.82 50.69 120.46c-12.51 20.98-20.99 43.61-24.47 67.9-1.58 11.02-2.61 22.12-3.94 33.57Zm372.47 74.65c-.56 15.93-3.9 27.18-15.08 33.52-17.7 10.03-43.78 4.43-48.75-20.7-1.87-9.43-1.19-18.54 2.99-27.33 4.74-9.96 12.92-15.35 23.45-16.55 13.34-1.52 25.22 2.22 32.08 14.56 3.3 5.93 4.28 13.15 5.3 16.5Zm-13.52 3.57c-.48-3.25-.71-6.57-1.48-9.75-1.95-8.03-8.16-13.19-15.74-13.42-10.12-.31-16.52 3.41-18.54 12.63-1.37 6.26-1.74 13.2-.57 19.46 2.42 12.89 17.13 18.32 27.93 10.83 6.79-4.71 8.12-12 8.4-19.74Zm37.24 6.85c0 7.37.04 14-.02 20.63-.03 3.9-2.82 6.79-6.54 6.13-3.11-.55-6.29-1.37-6.24-6.08.21-17.63.04-35.26.11-52.89.02-5.74 1.99-7.47 7.87-7.48 8.64 0 17.31.35 25.93-.11 7.73-.41 16.3 4.86 17.54 9.62 2.55 9.81 2.29 18.83-6.8 23.91-.26.14-.39.53-.74 1.04 5.69 2.1 6.87 6.6 6.91 12.1.03 3.88.99 7.76 1.6 11.63.6 3.82.03 6.74-4.43 7.88-4.14 1.05-7.49.16-8.61-3.97-1.28-4.69-1.71-9.63-2.3-14.48-.63-5.12-3.21-7.81-8.26-7.91-5.12-.1-10.25-.02-16.03-.02Zm.23-11.59c6.81 0 13.09.23 19.34-.07 4.89-.24 6.86-2.96 6.91-8.42.05-4.68-2.6-8.52-6.83-8.75-6.38-.35-12.8-.09-19.43-.09v17.33Zm-167.65 4.73c0-8.65-.03-17.3.01-25.95.03-4.97 1.9-6.83 6.81-6.86 6.98-.04 13.97.06 20.95-.02 14.13-.17 24.03 7.48 26.81 22.14 1.66 8.74 1.3 17.25-1.87 25.66-3.67 9.73-10.24 15.88-20.78 16.8-7.89.69-15.83.95-23.75 1.02-6.4.06-8.17-1.99-8.19-8.33-.02-8.15 0-16.3 0-24.45Zm12.84 21.1c10.04-.45 21.27 2.81 26.48-8.33 4.52-9.66 4.77-20.72-2.08-29.58-6.18-8-15.88-4.84-24.4-5.23v43.13Zm-248.49-43.2v14.31c8.01 0 15.91-.08 23.8.06 1.89.03 4.15.28 5.53 1.35 1.3 1 2.38 3.28 2.24 4.87-.14 1.53-1.7 3.5-3.15 4.2-1.96.95-4.41 1.14-6.66 1.18-7.11.14-14.22.05-21.63.05v17.17c10.23 0 20.31-.16 30.38.15 1.81.06 4.24 1.68 5.14 3.28.83 1.47.73 4.52-.3 5.71-1.29 1.49-3.94 2.44-6.02 2.48-11.96.22-23.92.22-35.88.05-4.5-.06-7.16-3.15-7.21-8.3-.13-16.62-.15-33.24-.05-49.86.03-5.45 2.17-7.39 7.58-7.42 11.46-.05 22.93.03 34.39-.04 3.83-.02 6.7 1.15 6.51 5.45-.18 4.09-2.98 5.37-6.81 5.33-9.11-.1-18.22-.03-27.86-.03Zm59.65 30.96c0 5.95.01 11.1 0 16.25-.01 5.05-2.87 8.69-6.8 8.68-3.89 0-6.83-3.62-6.84-8.71-.04-16.47-.07-32.94.03-49.41.04-6.71 1.97-8.46 8.6-8.48 7.48-.02 14.97.03 22.45-.01 16.36-.1 20.63 12.32 19.27 23.73-1.6 13.42-9.28 18.78-21.75 18-4.77-.3-9.57-.05-14.96-.05Zm.21-11.67c5.18 0 9.8.08 14.42-.02 5.09-.11 8.13-2.62 8.69-6.96.89-6.83-1.1-11.26-6.5-11.99-5.45-.73-11.07-.16-16.6-.16v19.13Zm60.75 2.78c0 8.96.02 17.93 0 26.89-.01 4.33-2.54 7.24-6.43 6.81-3.72-.4-6.33-2.31-6.3-6.67.08-11.29.02-22.57.02-33.86 0-6.81.04-13.61-.02-20.42-.04-4.21 1.81-6.49 6.14-6.54 4.88-.06 6.54 1.45 6.57 6.4.06 9.13.02 18.26.02 27.39ZM276.54 59.22h14.09c-.07.26-.15.76-.21.76-6.93-.1-9.27 4.91-11.68 10.14-4.47 9.7-8.94 19.43-17.04 26.86-3.15 2.89-6.53 4.99-11.11 4.1-1.56-9.22-1.64-19.04-10.62-26.16 1.12.14 2.48-.07 3.33.49 5.07 3.34 18.1 4.21 22.59-1.99 2.69-3.72 6.57-6.57 9.65-10.04.81-.91.67-2.67.99-4.15Zm-4.5 23.31c-8.88-.85-10.82 5.25-13.62 10.53-.38-1.32-.65-2.22-.91-3.12-.48-.19-.95-.37-1.43-.56l-4.98 10.14c.55.36 1.11.72 1.66 1.08 9.21-2.31 13.13-10.43 19.27-18.06Zm-79.4 273.39c-1.35 10.11-7.23 15.98-14.96 16-7.07.02-10.27-5.03-12.19-10.31-2.2-6.05-2.91-12.65-4.27-19-1.24-5.8-3.04-11.29-8.52-14.83 5.27-.94 7.54 1.78 10.1 10.26 1.93 6.36 2.76 13.05 4.08 19.59.89 4.39 2.51 8.52 7.4 9.43 5.67 1.05 10.85-.4 14.56-5.25 1.26-1.64 2.26-3.48 3.8-5.88Zm121.62-87.31h8.16v24.09h-8.16v-24.09Z"/><path d="M210.34 352.57c-6.42 9.04-13.63 17.3-23.01 23.44-8.34 5.45-12.04 4.92-20.47-1.05-5.06-3.58-9.94-12.31-10.85-19.27 2.64 4.11 5.12 8.34 7.99 12.29 1.82 2.51 3.98 4.91 6.42 6.81 4.43 3.44 9.37 3.31 13.64-.15 7.41-6 14.49-12.4 21.74-18.58 1.44-1.23 3.04-2.27 4.57-3.4l-.03-.08Zm21.8-75.91c-4.43 20.6-9.06 41.1-20.93 59.01 6.98-19.67 13.96-39.34 20.93-59.01Z"/><path d="M210.37 352.65c1.55-3.64 3.02-7.31 4.66-10.91 3.3-7.27 7.38-14.27 9.91-21.79 5.18-15.42 9.54-31.11 14.27-46.67.28-.92.82-1.75 1.79-3.79-6.76 29.87-14.06 58.18-30.67 83.07.01.02.04.1.04.1Zm45.02-295.27c-.79 3.53-.99 6.23-2.05 8.52-.68 1.46-2.76 3.33-4.01 3.19-1.78-.2-4.3-1.73-4.88-3.29-2.58-6.94-1.68-13.92 1.82-20.35 1.77-3.25 4.32-2.28 5.51.62 1.58 3.85 2.57 7.94 3.62 11.31Zm-5.91-13.95c-4.83 5.77-6.38 17.35-3.82 22 1.29 2.34 2.92 3.95 4.35 2.88-.8-3.91-2.01-6.85-1.75-9.67.16-1.79 2.51-3.37 4.82-6.19-.72-1.8-1.98-4.96-3.6-9.02Zm29.15-32.16c2.51-4.16 5.7-6.62 9.58-5.34 2.7.89 5.74 3.52 6.79 6.12 3.33 8.23 3.94 16.85.15 25.5 0-1.3-.02-2.61 0-3.91.03-1.49.3-3.01.1-4.46-.65-4.7-.96-9.52-2.32-14.02-1.96-6.49-4.76-7.54-11.08-5.28-.87.31-1.7.73-3.22 1.39Zm-19.92 39.95c.43-2.58.76-5.17 1.32-7.72 1.05-4.84 3.94-5.85 7.53-2.49 1.37 1.28 2.88 3.17 3 4.88.39 5.59.45 11.24.06 16.83-.22 3.25-2.4 4.55-5.59 2.64-5.4-3.24-6.09-8.49-6.33-14.13Zm6.01 12.49c-.35-2.91-.63-5.27-.84-7 .63.79 1.38 1.74 2.22 2.81 5.04-6.27 5.24-14.19.88-17.48-1.21-.91-4.55-1.11-5.2-.29-3.79 4.8-2.11 16.98 2.94 21.96Zm10.66-38.23c-4.96.4-9.91.81-14.87 1.21l-.78-1.42c1.84-1.46 3.61-4.06 5.52-4.16 4.01-.21 7.91 1.24 10.13 4.37Zm-28.86 80.31c5.41.84 9.99 1.55 14.19 2.21-2.64 2.52-9.73 1.98-14.19-2.21Z"/></g></svg>