<svg xmlns="http://www.w3.org/2000/svg" viewBox="0 0 1080 504.5"><defs><linearGradient id="a" x1="260.5" x2="401.7" y1="218.4" y2="218.4" gradientTransform="matrix(1 0 0 -1 0 506)" gradientUnits="userSpaceOnUse"><stop offset="0" stop-color="#f19c01"/><stop offset="1" stop-color="#f19c02"/></linearGradient><linearGradient id="b" x1="416.7" x2="455.8" y1="241.2" y2="241.2" gradientTransform="matrix(1 0 0 -1 0 506)" gradientUnits="userSpaceOnUse"><stop offset="0" stop-color="#f19c01"/><stop offset="1" stop-color="#f19c02"/></linearGradient><linearGradient id="c" x1="471.6" x2="697.6" y1="219.8" y2="219.8" gradientTransform="matrix(1 0 0 -1 0 506)" gradientUnits="userSpaceOnUse"><stop offset="0" stop-color="#f19c01"/><stop offset="1" stop-color="#f19c02"/></linearGradient><linearGradient id="d" x1="715.7" x2="847" y1="218.4" y2="218.4" gradientTransform="matrix(1 0 0 -1 0 506)" gradientUnits="userSpaceOnUse"><stop offset="0" stop-color="#f19c01"/><stop offset="1" stop-color="#f19c02"/></linearGradient><linearGradient id="e" x1="857.2" x2="942.8" y1="218.9" y2="218.9" gradientTransform="matrix(1 0 0 -1 0 506)" gradientUnits="userSpaceOnUse"><stop offset="0" stop-color="#f19c01"/><stop offset="1" stop-color="#f19c02"/></linearGradient><linearGradient id="f" x1="958" x2="1020.7" y1="241.7" y2="241.7" gradientTransform="matrix(1 0 0 -1 0 506)" gradientUnits="userSpaceOnUse"><stop offset="0" stop-color="#f19c01"/><stop offset="1" stop-color="#f19c02"/></linearGradient><linearGradient id="g" x1="190.4" x2="95.5" y1="180.7" y2="373.4" gradientTransform="matrix(1 0 0 -1 0 506)" gradientUnits="userSpaceOnUse"><stop offset=".2" stop-color="#f19c01"/><stop offset=".3" stop-color="#f0800c"/><stop offset=".4" stop-color="#ef6517"/><stop offset=".5" stop-color="#ee531f"/><stop offset=".6" stop-color="#ee4724"/><stop offset=".7" stop-color="#ee4426"/></linearGradient><linearGradient id="h" x1="41.8" x2="123.6" y1="275.8" y2="275.8" gradientTransform="matrix(1 0 0 -1 0 506)" gradientUnits="userSpaceOnUse"><stop offset="0" stop-color="#f19c01"/><stop offset="1" stop-color="#f19c02"/></linearGradient></defs><path d="M331.1 368.4c-47.1-1.5-70.6-28.8-70.6-81.8s23.8-79.4 71.2-79.7c49.4 0 72.7 30.3 69.7 91.2H300.8c1.5 23.8 11.8 35.9 30.9 35.9s17.7-3.8 25.3-11.2c3.5-3.8 7.9-5.6 13.2-5.6H399c-8.5 33-29.7 51.2-68 51.2h.1Zm-29.7-98.2H360c-2.4-20.6-12.1-31.2-28.8-31.2s-26.8 10.6-29.7 31.2h-.1Z" style="fill:url(#a)"/><path d="M455.8 183.9v181h-39.1V164.8H437c10.3 0 18.8 8.8 18.8 19.1Z" style="fill:url(#b)"/><path d="M511.3 265.5V365h-39.7v-91.5c0-44.4 22.4-66.5 66.8-66.5s35.3 4.4 46.5 13.2c11.2-8.5 26.5-12.7 46.5-12.7 44.4 0 66.5 22.1 66.2 66.5v91.5h-20.3c-12.9-.9-19.4-7.1-19.4-19.4v-80c-.9-16.2-9.7-24.1-27.1-24.1s-26.2 7.9-26.5 24.1V365h-39.4v-99.5c-.9-16.2-9.7-24.1-27.1-24.1s-26.2 7.9-26.5 24.1Z" style="fill:url(#c)"/><path d="M759.6 249.9h-39.1c4.7-28.8 25-43 60.9-43s64.7 14.1 65.6 43v53c0 43-25.9 62.1-68 65-37.4 2.9-63.3-14.4-63.3-48.8.9-37.4 28-47.4 67.4-51.2 16.8-2.1 25.3-7.1 25.3-15.6-.9-8.8-9.1-13.2-25.3-13.2s-21.5 3.5-23.5 10.9Zm49.5 51.2v-14.4c-9.1 3.8-19.7 7.1-31.2 9.4-15.6 2.9-23.5 10.3-23.5 21.8.9 12.4 7.4 18.2 19.7 18.2 21.8 0 35-12.9 35-35Z" style="fill:url(#d)"/><path d="M857.2 284.6c1.2-50.3 28-75.3 80-75.3h5.6v40.6h-13.2c-21.8 0-32.7 11.5-32.7 34.1v80.9h-39.7v-80.3Z" style="fill:url(#e)"/><path d="M1001.3 237.2h-4.1v86.2c0 6.5 3.8 10 11.5 10h12.1v29.7c-12.7 1.2-26.5 1.2-41.2-.3s-21.8-10.6-21.5-28V164.7h20.3c10.3 0 18.8 9.4 18.8 19.7v24.7h23.5v8.5c0 11.2-8.5 19.4-19.4 19.4v.2Z" style="fill:url(#f)"/><path d="M165.2 206.9c-15.2 0-29.4 4.1-41.7 11.2v143.4c12.2 7.1 26.5 11.2 41.7 11.2 45.8 0 82.9-37.1 82.9-82.9s-37.1-82.9-82.9-82.9Zm0 124.2c-22.8 0-41.2-18.5-41.2-41.2s18.5-41.2 41.2-41.2 41.2 18.5 41.2 41.2-18.5 41.2-41.2 41.2Z" style="fill:url(#g)"/><path d="M61.3 129.4c-.2.3-.4.2-.6 0-4.5-3.7-10.7-5.3-16.1-3.8-6.2 1.7-11.1 7.6-12 14.1-.7.6-.6 1.5-1.7 1.5.5-8.8 4.6-18.4 13.7-20.2 8.7-1.7 16.7 6.7 16.8 8.4Z" style="fill:#81b74d"/><path d="M61.2 131.2c-20 7.6-3.5 33.5-27.8 43.7-3 1.3-6.3 3.4-9.7 1.4 13.2-14.8 9-29.3 13.2-38.2 2.2-4.7 5.7-9.2 10.8-10.8 4.4-1.4 9 1.1 13 2.7.2.3.6.6.5 1.2Z" style="fill:#7fc50a"/><path d="M123.6 173.5v188c-24.7-14.4-41.3-41.1-41.3-71.7V142c-7.7-14.7-19.3-24.8-35.5-28.9l-3.7-2.9c-1.4-3.1-2.1-6 0-8.8 2-2.8 5.6-3.1 9.1-1.6 21.5 9.4 28.9 24.9 34.1 32.6 9.8.9 18.7 5.3 25.3 11.9 7.5 7.5 12.1 17.8 12.1 29.2h-.1Z" style="fill:url(#h)"/></svg>